<?xml version="1.0" encoding="UTF-8"?>
<svg xmlns="http://www.w3.org/2000/svg" xmlns:xlink="http://www.w3.org/1999/xlink" viewBox="0 0 1491 1470">
  <defs>
    <style>
      .st0 {
        fill: none;
        stroke: #231f20;
        stroke-miterlimit: 10;
      }
    </style>
  </defs>
  <polygon id="1.9" data-name="1.9" class="st0" points="420.14 1048 420.14 1119.61 620.58 1109.29 620.27 1030.35 420.14 1048"/>
  <polygon id="1.1" data-name="1.1" class="st0" points="325.15 1056.38 325.1 1124.51 420.14 1119.61 420.14 1048 325.15 1056.38"/>
  <polygon id="1.2" data-name="1.2" class="st0" points="180.18 1069.16 202.44 1075.69 202.44 1092.41 187.13 1096.67 187.13 1115.09 177.54 1117.94 177.54 1132.11 325.1 1124.51 325.15 1056.38 180.18 1069.16"/>
  <polygon id="1.7" data-name="1.7" class="st0" points="827.2 1012.1 827.2 1101.35 1010.31 1094.41 1300.81 1118.79 1300.81 1102.35 1290.94 1100.65 1290.94 1085.62 1282.72 1083.92 1282.72 1057.4 1299.07 1048.71 1010.31 995.95 827.2 1012.1"/>
  <polygon id="1.8" data-name="1.8" class="st0" points="620.27 1030.35 620.58 1109.29 628.49 1108.88 827.2 1101.35 827.2 1012.1 620.27 1030.35"/>
  <polygon id="2.11" data-name="2.11" class="st0" points="325.19 988.6 179.88 1007.85 202.44 1014.46 202.44 1034.02 187.13 1037.99 187.13 1053.86 179.24 1056.7 179.24 1068.89 180.18 1069.16 325.15 1056.38 325.19 988.6"/>
  <polygon id="2.10" data-name="2.10" class="st0" points="325.19 988.6 325.15 1056.38 420.14 1048 420.14 976.03 325.19 988.6"/>
  <polygon id="2.16" data-name="2.16" class="st0" points="954.76 918.68 924.52 909.23 827.2 922.12 827.2 922.36 827.2 1012.1 1010.31 995.95 1299.07 1048.71 1300.81 1047.89 1300.81 1035.17 1300.81 1033.95 1290.94 1031.48 1290.94 1016.06 1282.72 1013.34 1282.72 986.7 1300.6 977.69 1031.86 908.09 954.76 918.68"/>
  <polygon id="2.17" data-name="2.17" class="st0" points="620.27 1030.35 827.2 1012.1 827.2 922.36 827.2 922.12 619.95 949.56 620.27 1030.35"/>
  <polygon id="2.18" data-name="2.18" class="st0" points="420.14 976.03 420.14 1048 620.27 1030.35 619.95 949.56 420.14 976.03"/>
  <polygon id="3.26" data-name="3.26" class="st0" points="798.28 837.89 619.63 869.16 619.95 949.56 827.2 922.12 827.82 839 813.87 841.29 798.28 837.89"/>
  <polygon id="3.19" data-name="3.19" class="st0" points="420.14 904.08 325.23 920.69 325.19 988.6 420.14 976.03 420.14 904.08"/>
  <polygon id="3.27" data-name="3.27" class="st0" points="420.14 976.03 619.95 949.56 619.63 869.16 420.14 904.08 420.14 976.03"/>
  <polygon id="3.20" data-name="3.20" class="st0" points="325.23 920.69 179.24 946.24 179.24 947 202.44 952.95 202.44 973.36 187.13 977.33 187.13 991.22 179.24 992.92 179.24 1007.66 179.88 1007.85 325.19 988.6 325.23 920.69"/>
  <polygon id="3.25" data-name="3.25" class="st0" points="1033.56 814.08 989.06 820.88 970.91 815.5 827.82 839 827.2 922.12 924.52 909.23 954.76 918.68 1031.86 908.09 1300.6 977.69 1300.81 977.59 1300.81 956.26 1290.94 952.92 1290.94 941.9 1282.72 939.4 1282.72 911.28 1301.15 903.11 1301.15 902.52 1121.43 841.57 1033.56 814.08"/>
  <polygon id="4.28" data-name="4.28" class="st0" points="420.14 833.61 325.27 854.8 325.23 920.69 420.14 904.08 420.14 833.61"/>
  <polygon id="4.36" data-name="4.36" class="st0" points="420.14 904.08 619.63 869.16 619.31 789.12 420.14 833.61 420.14 904.08"/>
  <polygon id="4.35" data-name="4.35" class="st0" points="741.67 761.79 619.31 789.12 619.63 869.16 798.28 837.89 813.87 841.29 827.82 839 827.82 838.9 847.32 835.76 847.75 748.17 841.8 746.19 841.8 746 752.57 766.06 741.67 761.79"/>
  <polygon id="4.34" data-name="4.34" class="st0" points="1078.91 753.7 1009.37 723.28 989.72 727.62 970.63 720.63 848.1 748.1 841.81 746 841.8 746 841.8 746.19 847.75 748.17 847.32 835.76 827.82 838.9 827.82 839 970.91 815.5 989.06 820.88 1033.56 814.08 1121.43 841.57 1301.15 902.52 1300.81 881.84 1290.94 878.44 1290.94 864.84 1282.72 861.72 1282.72 833.34 1300.5 825.82 1107.26 749.54 1078.91 753.7"/>
  <polygon id="4.29" data-name="4.29" class="st0" points="325.27 854.8 179.71 887.32 202.44 893 202.44 914.41 187.13 919.5 187.13 933.67 179.24 936.51 179.24 946.24 325.23 920.69 325.27 854.8"/>
  <polygon id="5.43" data-name="5.43" class="st0" points="1134.85 671.87 1121.06 674.9 1076.48 651.52 1064.55 656.19 1010.31 627.17 985.75 634.46 973.84 628.41 852.14 660.16 842.46 657.34 841.8 657.52 841.8 746 841.81 746 848.1 748.1 970.63 720.63 989.72 727.62 1009.37 723.28 1078.91 753.7 1107.26 749.54 1300.5 825.82 1300.81 825.69 1301.81 809.53 1290.94 804.71 1290.94 795.41 1282.72 792.9 1283.09 764.73 1301.72 760.87 1301.69 758.67 1300.81 759.75 1134.85 671.87"/>
  <polygon id="5.38" data-name="5.38" class="st0" points="325.32 787.45 179.24 826.27 179.24 827.19 206.68 832.07 206.22 850.34 187.13 856.58 187.24 870.23 179.24 874.38 179.24 887.2 179.71 887.32 325.27 854.8 325.32 787.45"/>
  <polygon id="5.37" data-name="5.37" class="st0" points="420.14 762.25 325.32 787.45 325.27 854.8 420.14 833.61 420.14 762.25"/>
  <polygon id="5.45" data-name="5.45" class="st0" points="420.14 833.61 619.31 789.12 618.99 709.4 420.14 762.25 420.14 833.61"/>
  <polygon id="5.44" data-name="5.44" class="st0" points="749.32 689.01 721.35 696.36 698.43 688.29 618.99 709.4 619.31 789.12 741.67 761.79 752.57 766.06 841.8 746 841.8 657.52 749.35 682.3 749.32 689.01"/>
  <polygon id="6.46" data-name="6.46" class="st0" points="420.14 690.26 325.36 719.1 325.32 787.45 420.14 762.25 420.14 690.26"/>
  <polygon id="6.54" data-name="6.54" class="st0" points="618.99 709.4 618.74 644.54 614.06 645.85 614.06 645.79 613.15 646.04 591.17 638.24 420.14 690.26 420.14 762.25 618.99 709.4"/>
  <polygon id="6.53" data-name="6.53" class="st0" points="835.7 588.72 808.87 580.41 698.88 614.8 632.38 633.91 632.36 640.88 614.06 645.79 614.06 645.85 618.74 644.54 618.99 709.4 698.43 688.29 721.35 696.36 749.32 689.01 749.35 682.3 841.8 657.52 841.8 635.78 852 640.17 852 573.42 852 573.27 835.7 578.14 835.7 588.72"/>
  <polygon id="6.52" data-name="6.52" class="st0" points="1301.73 672.92 1126.31 575.72 1126.35 591.75 1076.42 564.83 1063.61 570.2 1010.31 536.18 987.26 543.75 972.14 537.32 852 573.27 852 573.42 852 640.17 841.8 635.78 841.8 657.52 842.46 657.34 852.14 660.16 973.84 628.41 985.75 634.46 1010.31 627.17 1064.55 656.19 1076.48 651.52 1121.06 674.9 1134.85 671.87 1300.81 759.75 1301.69 758.67 1301.53 742.73 1290.66 737.23 1290.94 719.48 1279.42 714.02 1279.23 694.74 1301.91 689.06 1301.73 672.92"/>
  <polygon id="6.47" data-name="6.47" class="st0" points="325.36 719.1 178.45 763.79 178.45 765.96 202.82 770.7 202.82 789.21 187.13 794.88 187.06 808.94 179.24 812 179.24 826.27 325.32 787.45 325.36 719.1"/>
  <polygon id="7.55" data-name="7.55" class="st0" points="420.14 690.26 420.14 619.43 325.4 652.9 325.36 719.1 420.14 690.26"/>
  <polygon id="7.56" data-name="7.56" class="st0" points="325.4 652.9 178.78 704.69 178.78 704.94 206.41 710.98 206.41 727.61 187.89 734.22 187.68 746.89 178.44 750.66 178.45 763.79 325.36 719.1 325.4 652.9"/>
  <polygon id="7.62" data-name="7.62" class="st0" points="824.74 497.81 823.89 498.2 823.04 497.83 809.07 491.92 614.17 563.26 614.06 645.79 632.36 640.88 632.38 633.91 698.88 614.8 808.87 580.41 835.7 588.72 835.7 578.14 852 573.27 851.76 488.62 824.74 497.81"/>
  <polygon id="7.61" data-name="7.61" class="st0" points="1174.27 508.56 1168.03 508.63 1168.08 512.73 1151.33 502.19 1133.02 509.39 1107.97 492.69 1097.12 496.2 1096.3 495.75 1010.91 441.38 989.11 449.86 978.99 444.81 851.76 488.62 852 573.27 972.14 537.32 987.26 543.75 1010.31 536.18 1063.61 570.2 1076.42 564.83 1126.35 591.75 1126.31 575.72 1290.68 666.51 1291.13 651.26 1283.73 646.92 1283.95 621.03 1301.52 618.21 1302.51 600.42 1289.62 591.33 1174.27 508.56"/>
  <polygon id="7.63" data-name="7.63" class="st0" points="613.15 646.04 614.06 645.79 614.17 563.26 607.61 565.53 591.92 558.13 420.14 619.43 420.14 690.26 591.17 638.24 613.15 646.04"/>
  <polygon id="8.64" data-name="8.64" class="st0" points="420.14 548.51 325.44 585.61 325.4 652.31 420.14 618.84 420.14 548.51"/>
  <polygon id="8.65" data-name="8.65" class="st0" points="200.74 634.46 200.93 666.39 186.38 672.06 186.67 686.43 177.12 690.02 177.08 704.71 325.4 652.31 325.44 585.61 200.74 634.46"/>
  <polygon id="8.70" data-name="8.70" class="st0" points="1278.31 509.25 1151.29 420.91 1115.39 434.14 1056.43 392.94 1048.87 394.83 994.82 354.77 985.37 358.55 977.43 351.75 857.24 396.35 857.01 486.27 978 445.1 979.06 444.73 979.7 445.09 989 449.82 1009.94 441.7 1010.97 441.26 1011.64 441.69 1097.06 496.17 1107.97 492.69 1133.2 509.04 1151.91 502.2 1167.99 512.61 1168.02 508.74 1174.21 508.51 1174.27 508.56 1289.45 590.93 1289.81 577.2 1278.68 570.21 1278.66 552.44 1300.2 545.26 1300.2 526.55 1289.84 518.36 1289.81 518.61 1278.31 509.25"/>
  <polygon id="8.71" data-name="8.71" class="st0" points="612.58 563.74 809.01 491.92 823.89 498.2 857.01 486.27 857.24 396.35 845.91 389.92 754.44 426.96 754.44 431.87 714 449.26 606.89 491.73 607.62 565.32 612.58 563.74"/>
  <polygon id="8.72" data-name="8.72" class="st0" points="591.92 558.13 607.51 565.26 606.89 491.73 584.36 500.66 576.05 497.26 535.98 513.51 520.11 509.35 420.14 548.51 420.14 618.84 590.98 558.49 591.92 558.13"/>
  <polygon id="9.73" data-name="9.73" class="st0" points="325.46 554.33 325.44 585.61 420.14 548.51 420.14 529.48 435.73 522.68 435.73 443.03 373.84 470.43 373.84 487.06 339.45 503.25 339.45 548.28 325.46 554.33"/>
  <polygon id="9.80" data-name="9.80" class="st0" points="606.52 448.27 606.89 491.73 714 449.26 754.44 431.87 754.44 426.96 845.91 389.92 857.24 396.35 846.33 390.02 846.33 256.53 846.28 256.5 751.42 298.46 751.8 337.39 742.35 341.17 723.07 328.31 612.76 377.71 612.76 445.57 606.52 448.27"/>
  <polygon id="9.74" data-name="9.74" class="st0" points="325.46 554.33 339.45 548.28 339.45 503.25 308.83 517.67 285.02 506.71 204.9 543.37 204.71 556.67 193.44 562.74 193.18 588.54 204.9 591.56 204.52 603.28 186.38 612.72 186.19 625.95 176.8 630.8 178.82 644.17 200.74 634.46 325.44 585.61 325.46 554.33"/>
  <polygon id="9.79" data-name="9.79" class="st0" points="857.24 396.35 977.43 351.75 985.37 358.55 994.82 354.77 1048.87 394.83 1056.43 392.94 1115.39 434.14 1151.29 420.91 1278.31 509.25 1289.84 518.36 1290.94 506.71 1278.66 495.37 1278.19 429.42 1225.75 381.51 1207.61 386.61 1207.61 366.49 1150.91 316.03 1116.05 330.2 1088.83 304.98 1079.48 309.8 1054.91 290.52 1055.67 270.49 993.31 218.71 870.47 272.38 846.33 256.53 846.33 390.02 857.24 396.35"/>
  <polygon id="9.81" data-name="9.81" class="st0" points="420.14 529.48 420.14 548.51 520.11 509.35 535.98 513.51 576.05 497.26 584.36 500.66 606.89 491.73 606.52 448.27 612.76 445.57 612.76 377.71 484.2 435.28 469.46 428.09 435.73 443.03 435.73 522.68 420.14 529.48"/>
  <path id="_ДП.0.5" data-name="ДП.0.5" class="st0" d="M187.3,1131.6v56.1c37.2.8,74.4,1.6,111.5,2.4l.6-64c-37.4,1.8-74.8,3.7-112.1,5.5Z"/>
  <path id="_ДП.0.4" data-name="ДП.0.4" class="st0" d="M299.4,1126.1c-.2,21.4-.4,42.7-.5,64.1,37.5.8,75,1.5,112.5,2.3,0-24.1.2-48.2.2-72.4-37.4,2-74.8,4-112.2,6Z"/>
  <path id="_ДП.0.3" data-name="ДП.0.3" class="st0" d="M411.8,1120.1c-.1,24.1-.3,48.3-.4,72.4,62.2,1.3,124.3,2.6,186.5,3.9,0-28.6,0-57.3,0-85.9l-186.2,9.6Z"/>
  <path id="_ДП.0.2" data-name="ДП.0.2" class="st0" d="M597.9,1110.5c0,28.7,0,57.3,0,86,46.3,1,92.6,1.9,139,2.9,0-31.5.1-63,.2-94.5-46.4,1.9-92.8,3.8-139.2,5.7Z"/>
  <path id="_ДП.0.1" data-name="ДП.0.1" class="st0" d="M737.2,1104.9c0,31.5-.2,63-.3,94.5,86.9,3.7,177.1,5.7,270.5,5.8,95.6,0,187.9-2,276.7-5.7.4-27.3.8-54.6,1.1-81.9-91.7-7.7-183.3-15.5-275-23.2-91,3.5-182,7-273.1,10.5Z"/>
  <path id="_ДП.0.6" data-name="ДП.0.6" class="st0" d="M72.8,1136.5v48.8c38.2.8,76.4,1.6,114.5,2.5,0-18.7,0-37.4-.1-56.1-38.1,1.6-76.3,3.3-114.4,4.9Z"/>
  <path id="_ДП.0.7" data-name="ДП.0.7" class="st0" d="M.5,1139.8c0,14.7,0,29.3,0,44,24.1.4,48.3.9,72.4,1.3,0-16.2,0-32.4.1-48.6-24.2,1.1-48.3,2.2-72.5,3.3Z"/>
</svg>