<?xml version="1.0" encoding="UTF-8"?>
<svg xmlns="http://www.w3.org/2000/svg" xmlns:xlink="http://www.w3.org/1999/xlink" viewBox="0 0 1491 1470">
  <defs>
    <style>
      .cls-1 {
        fill: none;
        stroke: #000;
        stroke-miterlimit: 10;
      }
    </style>
  </defs>
    <polygon id="_1.4" data-name="1.4" class="cls-1" points="575.95 1085.88 569.66 1085.77 493.88 1096.52 494 1170.42 633.9 1163.74 634 1077.38 575.95 1085.88"/>
    <polygon id="_1.5" data-name="1.5" class="cls-1" points="393.5 1110.77 393.5 1111 393.5 1175.22 494 1170.42 493.88 1096.52 393.5 1110.77"/>
    <polygon id="_1.7" data-name="1.7" class="cls-1" points="267.54 1128.64 267.54 1128.66 288.24 1130.55 288.24 1146.32 284.37 1147.22 284.3 1151.44 275.67 1152.48 275.48 1166.94 267.54 1167.72 267.54 1181.24 314.37 1179 314.53 1121.97 267.54 1128.64"/>
    <polygon id="_1.6" data-name="1.6" class="cls-1" points="393.5 1110.77 314.53 1121.97 314.37 1179 393.5 1175.22 393.5 1111 393.5 1110.77"/>
    <path id="_1.3" data-name="1.3" class="cls-1" d="M1096.9,1073.7l-189-23.2-43.9,5.2-29.5-4.5-77.3,11.8-12.4-2.1-110.8,16.2v86.4c67.3-3.8,134.8-7.5,202.2-11.3l266.8-13.8v-65.3l-6.2.4v.2Z"/>
    <path id="_1.2" data-name="1.2" class="cls-1" d="M1103.1,1072.9v65.8c48.4-2.6,96.8-5.3,145.1-7.9,0-2.3,0-4.7-.2-7l-24.9-5.1v-19.1l40-6.2v-.2c-53.3-6.7-106.6-13.4-159.9-20.2h0Z"/>
    <polygon id="_2.14" data-name="2.14" class="cls-1" points="393.5 1048.22 393.5 1110.77 493.88 1096.52 493.77 1024.57 393.5 1048.22"/>
    <polygon id="_2.11" data-name="2.11" class="cls-1" points="1247.86 1055.06 1228.96 1051.85 1228.77 1043.16 1218.19 1041.27 1218.19 1027.85 1263.77 1021.61 1263.77 1021.51 1103.01 985.06 1103.01 1073.39 1103.36 1073.36 1262.88 1093.56 1262.88 1077.16 1248.24 1074.91 1247.86 1055.06"/>
    <polygon id="_2.15" data-name="2.15" class="cls-1" points="314.68 1066.8 314.53 1121.97 393.5 1110.77 393.5 1048.22 314.68 1066.8"/>
    <polygon id="_2.13" data-name="2.13" class="cls-1" points="637.23 995.16 637.23 995.13 625.54 993.5 493.77 1024.57 493.88 1096.52 569.66 1085.77 575.95 1085.88 634 1077.38 634.08 994.7 637.23 995.16"/>
    <polygon id="_2.12" data-name="2.12" class="cls-1" points="1028.24 973.37 907.76 945.68 861.44 956.69 829.9 950.75 751.06 968.97 745.87 967.51 637.44 995.16 637.23 995.13 637.23 995.16 634.08 994.7 634 1077.38 744.81 1061.15 757.18 1063.24 834.44 1051.41 863.91 1055.87 907.84 1050.62 1096.84 1073.79 1103.01 1073.39 1103.01 985.06 1042.99 971.45 1028.24 973.37"/>
    <polygon id="_2.16" data-name="2.16" class="cls-1" points="314.68 1066.8 270.09 1077.32 288.24 1078.39 288.24 1098.42 276.05 1101.08 275.57 1114.59 267.54 1116.18 267.54 1128.64 314.53 1121.97 314.68 1066.8"/>
    <polygon id="_3.22" data-name="3.22" class="cls-1" points="493.77 1024.57 625.54 993.5 637.23 995.13 637.28 913.14 626.5 909.74 626.5 908.87 493.65 952.17 493.77 1024.57"/>
    <polygon id="_3.21" data-name="3.21" class="cls-1" points="1041.69 881.77 1035.07 883.76 907.42 845.68 861.07 859.71 829.18 850.92 751.09 876.15 744.71 874.59 693.97 891.17 687.31 889.05 626.5 908.87 626.5 909.74 637.28 913.14 637.23 995.13 637.44 995.16 745.87 967.51 751.06 968.97 829.9 950.75 861.44 956.69 907.76 945.68 1028.24 973.37 1042.99 971.45 1103.01 985.06 1103.01 899.99 1041.69 881.77"/>
    <polygon id="_3.25" data-name="3.25" class="cls-1" points="314.84 1010.45 268.27 1025.63 292.11 1027.85 292.11 1037.77 283.89 1040.51 283.89 1047.13 276.24 1049.77 276.14 1062.91 267.54 1065.44 267.64 1077.17 270.09 1077.32 314.68 1066.8 314.84 1010.45"/>
    <polygon id="_3.23" data-name="3.23" class="cls-1" points="393.5 984.81 393.5 1048.22 493.77 1024.57 493.65 952.17 393.5 984.81"/>
    <polygon id="_3.20" data-name="3.20" class="cls-1" points="1103.01 985.06 1263.77 1021.51 1263.55 1003.28 1250.98 999.87 1250.98 986.64 1222.91 979.46 1222.91 954.7 1262.88 948.09 1262.88 947.5 1103.01 899.99 1103.01 985.06"/>
    <polygon id="_3.24" data-name="3.24" class="cls-1" points="393.5 984.81 314.84 1010.45 314.68 1066.8 393.5 1048.22 393.5 984.81"/>
    <polygon id="_4.29" data-name="4.29" class="cls-1" points="1103.01 899.99 1262.88 947.5 1262.88 930.52 1250.98 926.73 1250.98 907.65 1228.77 900.67 1228.39 889.14 1222.91 887.81 1222.91 883.46 1262.9 875.33 1103.01 812.97 1103.01 899.99"/>
    <polygon id="_4.34" data-name="4.34" class="cls-1" points="314.99 954.07 267.54 973.72 267.54 973.98 288.24 976.25 288.24 992.4 275.39 997.24 275.1 1010.09 267.77 1013.3 267.82 1025.58 268.27 1025.63 314.84 1010.45 314.99 954.07"/>
    <polygon id="_4.32" data-name="4.32" class="cls-1" points="493.54 880.13 393.5 921.56 393.5 984.81 493.65 952.17 493.54 880.13"/>
    <polygon id="_4.31" data-name="4.31" class="cls-1" points="493.54 880.13 493.65 952.17 626.5 908.87 626.5 825.06 493.54 880.13"/>
    <polygon id="_4.33" data-name="4.33" class="cls-1" points="393.5 921.56 314.99 954.07 314.84 1010.45 393.5 984.81 393.5 921.56"/>
    <polygon id="_4.30" data-name="4.30" class="cls-1" points="984.8 772.4 908.13 743.06 861.21 760.78 823.67 748.79 745.5 781.38 738.09 778.85 626.5 825.06 626.5 908.87 687.31 889.05 693.97 891.17 744.71 874.59 751.09 876.15 829.18 850.92 861.07 859.71 907.42 845.68 1035.07 883.76 1041.69 881.77 1103.01 899.99 1103.01 812.97 992.46 769.85 984.8 772.4"/>
    <polygon id="_5.41" data-name="5.41" class="cls-1" points="493.43 808.1 393.5 858.59 393.5 921.56 493.54 880.13 493.43 808.1"/>
    <polygon id="_5.40" data-name="5.40" class="cls-1" points="493.54 880.13 626.5 825.06 626.5 740.87 493.43 808.1 493.54 880.13"/>
    <polygon id="_5.39" data-name="5.39" class="cls-1" points="626.5 740.87 626.5 825.06 738.09 778.85 745.5 781.38 823.67 748.79 861.21 760.78 908.13 743.06 984.8 772.4 992.46 769.85 1103.01 812.97 1103.01 725.51 872.03 616.84 626.5 740.87"/>
    <polygon id="_5.42" data-name="5.42" class="cls-1" points="393.5 858.59 315.15 898.17 314.99 954.07 393.5 921.56 393.5 858.59"/>
    <polygon id="_5.38" data-name="5.38" class="cls-1" points="1103.01 812.97 1262.9 875.33 1263.76 875.16 1263.66 857.01 1252.58 852.48 1252.39 835.66 1222.91 823.74 1222.91 811.84 1263.37 801.27 1263.36 800.96 1103.01 725.51 1103.01 812.97"/>
    <polygon id="_5.43" data-name="5.43" class="cls-1" points="315.15 898.17 267.54 922.21 267.54 922.39 288.24 924.75 288.24 930.99 284.55 933.27 284.65 941.96 275.39 945.93 275.2 957.74 267.54 961.88 267.54 973.72 314.99 954.07 315.15 898.17"/>
    <polygon id="_6.52" data-name="6.52" class="cls-1" points="315.3 842.64 267.9 870.87 288.24 874.77 288.24 887.52 275.29 895.38 275.29 905.68 267.54 909.82 267.54 922.21 315.15 898.17 315.3 842.64"/>
    <polygon id="_6.48" data-name="6.48" class="cls-1" points="626.5 657.27 626.5 740.87 872.03 616.84 1103.01 725.51 1103.01 638.86 873.42 510.19 626.5 657.27"/>
    <polygon id="_6.51" data-name="6.51" class="cls-1" points="393.5 796.06 315.3 842.64 315.15 898.17 393.5 858.59 393.5 796.06"/>
    <polygon id="_6.50" data-name="6.50" class="cls-1" points="493.31 736.6 393.5 796.06 393.5 858.59 493.43 808.1 493.31 736.6"/>
    <polygon id="_6.49" data-name="6.49" class="cls-1" points="493.43 808.1 626.5 740.87 626.5 657.27 493.31 736.6 493.43 808.1"/>
    <polygon id="_6.47" data-name="6.47" class="cls-1" points="1103.01 725.51 1263.36 800.96 1263.28 784.26 1250.98 777.25 1250.98 761.95 1228.96 750.62 1228.58 738.34 1262.32 728.14 1103.01 638.86 1103.01 725.51"/>
    <polygon id="_7.59" data-name="7.59" class="cls-1" points="493.2 664.51 393.5 733.22 393.5 796.06 493.31 736.6 493.2 664.51"/>
    <polygon id="_7.57" data-name="7.57" class="cls-1" points="626.5 572.64 626.5 657.27 873.42 510.19 1103.01 638.86 1103.01 552.72 871.24 403.98 626.5 572.64"/>
    <polygon id="_7.61" data-name="7.61" class="cls-1" points="315.45 787.01 267.74 819.89 290.7 822.4 284.08 826.31 284.08 836.8 275.76 842.94 275.68 853.7 267.42 858.52 267.58 870.81 267.9 870.87 315.3 842.64 315.45 787.01"/>
    <polygon id="_7.60" data-name="7.60" class="cls-1" points="393.5 733.22 315.45 787.01 315.3 842.64 393.5 796.06 393.5 733.22"/>
    <polygon id="_7.56" data-name="7.56" class="cls-1" points="1103.01 638.86 1262.32 728.14 1262.98 727.94 1262.88 710.36 1250.98 703.93 1250.98 688.25 1222.91 672.55 1222.91 669.16 1262.4 655.01 1103.01 552.72 1103.01 638.86"/>
    <polygon id="_7.58" data-name="7.58" class="cls-1" points="626.5 657.27 626.5 572.64 493.2 664.51 493.31 736.6 626.5 657.27"/>
    <polygon id="_8.70" data-name="8.70" class="cls-1" points="315.61 731.28 268.85 767.66 268.85 767.72 287.93 772.12 288.05 781.9 275.15 791.82 274.99 801.03 267.64 806.42 267.64 819.88 267.74 819.89 315.45 787.01 315.61 731.28"/>
    <polygon id="_8.65" data-name="8.65" class="cls-1" points="1103.01 552.72 1262.4 655.01 1262.96 654.81 1262.88 637.41 1250.98 629.1 1250.98 615.87 1227.64 599.44 1228.02 594.91 1262.88 581.85 1262.88 581.82 1103.01 465.79 1103.01 552.72"/>
    <polygon id="_8.68" data-name="8.68" class="cls-1" points="493.2 664.51 493.09 593.18 393.5 670.67 393.5 733.22 493.2 664.51"/>
    <polygon id="_8.67" data-name="8.67" class="cls-1" points="626.5 572.64 626.5 489.37 493.09 593.18 493.2 664.51 626.5 572.64"/>
    <polygon id="_8.66" data-name="8.66" class="cls-1" points="871.24 403.98 1103.01 552.72 1103.01 465.79 872.15 298.23 626.5 489.37 626.5 572.64 871.24 403.98"/>
    <polygon id="_8.69" data-name="8.69" class="cls-1" points="393.5 670.67 315.61 731.28 315.45 787.01 393.5 733.22 393.5 670.67"/>
    <polygon id="_9.75" data-name="9.75" class="cls-1" points="626.5 452.98 626.5 489.37 872.15 298.23 1103.01 465.79 1103.01 428.61 1087.42 418.78 1087.42 363.78 1048.11 332.23 1048.11 303.13 885.59 166.69 837.21 207.88 819.09 195.18 679.58 321.49 680.46 351.82 632.36 394.4 632.36 448.26 626.5 452.98"/>
    <polygon id="_9.77" data-name="9.77" class="cls-1" points="393.5 643.28 393.5 670.67 493.09 593.18 492.94 495.89 456.71 528.33 457.09 548.36 407.67 591.45 407.67 632.13 393.5 643.28"/>
    <polygon id="_9.78" data-name="9.78" class="cls-1" points="393.5 670.67 393.5 643.28 407.67 632.13 407.67 591.45 362.6 630.75 344.83 625.46 315.82 651.52 315.61 731.28 393.5 670.67"/>
    <polygon id="_9.79" data-name="9.79" class="cls-1" points="315.82 651.52 277.94 685.55 278.12 710.88 291.82 714.76 291.73 725.43 275.48 738.28 275.54 748.27 268.86 752.83 268.85 767.66 315.61 731.28 315.82 651.52"/>
    <polygon id="_9.74" data-name="9.74" class="cls-1" points="1103.01 428.61 1103.01 465.79 1262.88 581.82 1262.88 564.35 1250.98 556.25 1250.98 542.92 1218.66 517.71 1249.28 502.69 1248.99 470.94 1152.43 390.06 1134.28 401.39 1087.42 363.78 1087.42 418.78 1103.01 428.61"/>
    <polygon id="_9.76" data-name="9.76" class="cls-1" points="626.5 489.37 626.5 452.98 632.36 448.26 632.36 394.4 551.95 465.59 536.08 457.27 492.94 495.89 493.09 593.18 626.5 489.37"/>
    <path id="_ДП.0.1" data-name="ДП.0.1" class="cls-1" d="M400.6,1174.8c-33.7,1.7-67.5,3.3-101.2,5,0,17.6,0,35.3,0,52.9,33.7,1.1,67.4,2.1,101.1,3.2,0-20.4,0-40.7.1-61.1Z"/>
    <path id="_ДП.0.2" data-name="ДП.0.2" class="cls-1" d="M566.2,1166.5c-55.2,2.8-110.4,5.5-165.6,8.3,0,20.4-.1,40.7-.2,61.1,55.3,1.7,110.6,3.3,165.9,5,0-24.8-.1-49.6-.2-74.3Z"/>
    <path id="_ДП.0.4" data-name="ДП.0.4" class="cls-1" d="M733,1157.9c-55.6,2.9-111.2,5.7-166.8,8.6l.2,74.4c55.6,1.6,111.2,3.3,166.9,4.9,0-29.3-.1-58.6-.2-87.9Z"/>
    <path id="_ДП.0.5" data-name="ДП.0.5" class="cls-1" d="M872.7,1150.5c-46.6,2.4-93.1,4.8-139.7,7.3,0,29.4.1,58.8.2,88.2,46.5,1.4,92.9,2.8,139.4,4.2,0-33.2,0-66.4.1-99.6Z"/>
    <path id="_ДП.0.6" data-name="ДП.0.6" class="cls-1" d="M1120.4,1137.8c-82.6,4.2-165.1,8.5-247.7,12.7,0,33.2,0,66.4-.1,99.6,82.6,2.5,165.2,5,247.8,7.5,0-40,0-79.9,0-119.9Z"/>
    <path id="_ДП.0.7" data-name="ДП.0.7" class="cls-1" d="M1490.6,1118.7c-123.4,6.4-246.8,12.8-370.2,19.1,0,39.9,0,79.8,0,119.8,123.4,3.8,246.8,7.5,370.2,11.3,0-50.1,0-100.1,0-150.2Z"/>
</svg>